<svg width="720" height="520" viewBox="0 0 720 520" fill="none" xmlns="http://www.w3.org/2000/svg">
  <rect width="720" height="520" rx="42" fill="#EEF7F4"/>
  <rect x="66" y="72" width="588" height="376" rx="34" fill="white"/>
  <rect x="104" y="116" width="258" height="34" rx="17" fill="#14342F"/>
  <rect x="104" y="176" width="512" height="18" rx="9" fill="#CBD5E1"/>
  <rect x="104" y="220" width="460" height="18" rx="9" fill="#E2E8F0"/>
  <rect x="104" y="278" width="226" height="72" rx="24" fill="#FEF3C7"/>
  <rect x="360" y="278" width="256" height="72" rx="24" fill="#CCFBF1"/>
  <circle cx="156" cy="314" r="18" fill="#D95D39"/>
  <circle cx="412" cy="314" r="18" fill="#0F766E"/>
  <rect x="104" y="382" width="512" height="18" rx="9" fill="#E2E8F0"/>
  <rect x="104" y="382" width="314" height="18" rx="9" fill="#14B8A6"/>
  <circle cx="604" cy="130" r="50" fill="#14342F"/>
  <path d="M585 130h38M604 111v38" stroke="white" stroke-width="12" stroke-linecap="round"/>
</svg>
