<svg xmlns="http://www.w3.org/2000/svg" viewBox="0 0 1024 1024" role="img" aria-label="MetaQuiz">
  <defs>
    <linearGradient id="top" x1="320" y1="190" x2="760" y2="610" gradientUnits="userSpaceOnUse">
      <stop offset="0" stop-color="#1674ff"/>
      <stop offset="1" stop-color="#0f63f5"/>
    </linearGradient>
    <linearGradient id="base" x1="278" y1="548" x2="742" y2="866" gradientUnits="userSpaceOnUse">
      <stop offset="0" stop-color="#38249a"/>
      <stop offset="1" stop-color="#25177f"/>
    </linearGradient>
    <linearGradient id="teal" x1="558" y1="565" x2="693" y2="698" gradientUnits="userSpaceOnUse">
      <stop offset="0" stop-color="#17d8ca"/>
      <stop offset="1" stop-color="#0eb4a6"/>
    </linearGradient>
    <filter id="softShadow" x="-16%" y="-16%" width="132%" height="132%">
      <feDropShadow dx="0" dy="18" stdDeviation="18" flood-color="#15336d" flood-opacity=".16"/>
    </filter>
  </defs>
  <g filter="url(#softShadow)">
    <rect x="258" y="516" width="508" height="302" rx="46" transform="rotate(35 512 667)" fill="url(#base)"/>
    <rect x="232" y="234" width="560" height="382" rx="46" transform="rotate(35 512 425)" fill="url(#top)"/>
    <rect x="562" y="548" width="138" height="138" rx="22" transform="rotate(35 631 617)" fill="url(#teal)"/>
    <path fill="#fff" d="M381 425c22-93 103-151 204-142 125 12 216 109 203 229-8 73-43 120-112 178l-81 68-83-98 80-67c48-40 65-65 69-102 6-55-34-99-92-104-55-5-92 23-109 82l-79-44Z"/>
    <path fill="#fff" d="M497 663 620 770 531 873 408 766l89-103Z"/>
    <circle cx="466" cy="818" r="63" fill="#fff"/>
    <circle cx="466" cy="818" r="33" fill="#12c8bb"/>
  </g>
</svg>
